<?xml version="1.0" encoding="utf-8"?>
<!-- Generator: Adobe Illustrator 21.1.0, SVG Export Plug-In . SVG Version: 6.00 Build 0)  -->
<svg version="1.1" id="Слой_1" xmlns="http://www.w3.org/2000/svg" xmlns:xlink="http://www.w3.org/1999/xlink" x="0px" y="0px"
	 viewBox="0 0 573.2 102.2" style="enable-background:new 0 0 573.2 102.2;" xml:space="preserve">
<g>
	<path style="fill:#FCFCFC;" d="M286.1,102.1c-94,0-188,0-282,0.1c-3.4,0-4.1-0.7-4.1-4.1c0.2-31.5,0.2-63,0-94.5C0,0.6,0.6,0,3.6,0
		c188.7,0.1,377.3,0.1,566,0c3,0,3.6,0.6,3.6,3.6c-0.1,31.5-0.2,63,0,94.5c0,3.4-0.7,4.1-4.1,4.1
		C474.8,102.1,380.4,102.1,286.1,102.1z M32.4,47.8c8.3-8.2,16-15.7,23.7-23.4c4.6-4.6,5.5-11.7,2.1-15.1c-6-6.2-11.6-6.7-17.4-1.1
		C30.3,18.5,20,28.9,9.8,39.4c-4.3,4.5-5.2,10-1.4,13.9c10.3,10.9,20.9,21.5,31.8,31.8c4.3,4.1,11.4,3.1,15-1
		c4.1-4.7,3.8-10.6-1.1-15.5C47,61.7,39.9,55,32.4,47.8z M523.5,87.8c3.3-0.5,6.2-1.5,8.3-3.6C542.4,73.5,553,63,563.3,52.2
		c4.8-5,4.7-9.9-0.2-14.9c-9.5-9.9-19.3-19.7-29.1-29.4c-2.7-2.7-6.1-4.4-10.2-3.1c-9.3,2.9-11.8,11.6-5.1,18.8
		c5.7,6.1,11.5,12,17.6,17.7c3,2.8,3.3,4.4,0.2,7.3c-7,6.6-13.8,13.4-20.3,20.5c-2.4,2.7-5.5,5.6-3.2,10.4
		C515.4,84.3,518.8,87,523.5,87.8z M70.9,40.4c0,0,0.1,0,0.1,0c0,2.2,0,4.3,0,6.5c0,13,0.8,13.7,13.9,12
		c11.6-1.5,17.2-7.6,17.6-19.1c0.3-9.8-5.4-16.7-15.9-18.5c-3.7-0.6-7.6-0.3-11.4-0.3c-3,0.1-4.4,1.8-4.4,4.9
		C70.9,30.8,70.9,35.6,70.9,40.4z M243.3,45.6C243.3,45.6,243.3,45.6,243.3,45.6c0,3.2,0,6.3,0,9.5c0,2.3,0.7,4.1,3.3,3.9
		c2.4-0.1,2.8-1.9,2.8-3.9c0-4.2-0.1-8.3,0.3-12.5c0.3-3.1,2.2-5.4,5.5-5.4c3.6,0.1,4.7,2.8,4.8,5.9c0.2,3.8,0.1,7.7,0,11.5
		c0,2.1,0,4.3,2.7,4.4c2.9,0.1,3.3-2.2,3.3-4.6c0-3.8-0.1-7.7,0.1-11.5c0.2-3.5,2.2-5.8,5.7-5.6c3.3,0.1,4.3,2.8,4.3,5.7
		c0.1,4,0,8-0.1,12c0,2.3,0.5,4.1,3.2,4.1c2.4,0,3-1.7,2.9-3.8c0-4.8,0.3-9.7-0.1-14.5c-0.6-7.5-7.9-11.3-14.1-7.1
		c-2.9,2-4.3,2-6.8-0.3c-2-1.8-4.8-1.8-7.6-0.6c-2,0.8-3.6,3.4-6.3-0.1c-1.5-1.9-4,0.2-4.1,2.9C243.2,38.9,243.3,42.3,243.3,45.6z
		 M143.2,57.8c0.9,0.2,1.2,0.2,1.5,0.4c4.8,3.9,12.6,1.4,16-3c3.9-5.1,3.8-14.4-0.3-19.2c-3.7-4.3-9-5-15.3-1.6
		c-1.2,0.6-1.8,1.3-2.4-0.5c-0.6-1.6-2-2.2-3.7-1.5c-1.4,0.6-1.9,1.7-1.9,3.2c0,11,0,22,0,32.9c0,1.9,0.8,3.3,2.8,3.4
		c2.3,0.1,3.3-1.2,3.2-3.4C143.2,65,143.2,61.5,143.2,57.8z M484.2,57.5c3.6,2,6.7,3.2,10.4,2.2c7.6-2.1,11.5-9.6,9.5-18.3
		c-1.9-8-9.9-11.7-17-7.6c-1.8,1-2.8,2.1-3.9-0.6c-0.5-1.1-1.9-1.3-3.1-0.8c-1.4,0.6-2,1.7-1.9,3.2c0,11,0,22,0,32.9
		c0,2.2,0.9,3.6,3.2,3.4c2-0.1,2.9-1.4,2.8-3.4C484.2,65.1,484.2,61.6,484.2,57.5z M423.5,49.3c5.6-1.5,9.3,0.2,10.4,6.3
		c0.4,2.2,1.8,4.2,4.6,3.2c3.2-1.2,2.1-3.5,1.2-5.8c-3.9-9.4-7.7-18.7-11.5-28.1c-0.8-1.9-1.5-3.8-4-3.9c-2.7-0.1-3.7,1.7-4.6,3.8
		c-3.9,9.3-7.9,18.7-11.8,28c-1,2.3-1.7,4.7,1.3,5.8c2.9,1.1,4.1-1.2,4.5-3.3C414.8,49.8,418,47.7,423.5,49.3z M451.8,58.2
		c0.5,0,0.7,0,0.9,0c7.3,2.8,12.9,1.8,16.5-3.1c3.9-5.2,3.9-13.8,0.1-18.7c-3.7-4.7-8.2-5.1-16.3-1.5c-0.7,0.3-1.4,1.1-1.6-0.5
		c-0.4-2.1-1.9-2.7-3.7-2.1c-1.6,0.6-1.8,2.1-1.8,3.7c0,10.6,0,21.3,0,31.9c0,2,0.3,3.8,2.8,3.9c2.6,0.1,3.4-1.6,3.3-3.9
		C451.8,64.7,451.8,61.5,451.8,58.2z M188.6,56.4c0.7,1.7,1.1,3.6,3.3,3.5c1.4-0.1,2.6-1,2.6-2.5c0-7.1,0.1-14.3-0.2-21.4
		c-0.1-2.5-2.4-4-4-1.9c-1.9,2.6-2.9,1.3-4.6,0.3c-1.9-1.1-4-1.5-6.2-1.2c-5.6,0.8-9.6,4.8-10.9,10.8c-1.2,5.6,0.9,11.3,5.2,14.1
		C178.4,61.2,182.9,60.7,188.6,56.4z M121.9,48c2.9-1,8.5,2.5,9.2-4.4c0.5-5.8-4.7-11.3-10.7-11.5c-1.1,0-2.3,0.1-3.4,0.4
		c-5.7,1.7-8.6,6-9.6,11.6c-1,5.5,0.4,10.4,5.1,13.7c4.8,3.4,10,3,15.1,0.5c1.8-0.9,3.2-2.1,2.2-4.3c-1-2.2-2.7-1.9-4.6-0.9
		c-3.1,1.7-6.3,2.2-9.4,0c-1.4-1-2.8-2.5-2.3-4.1c0.5-1.8,2.5-0.8,3.9-1C118.6,47.9,120,48,121.9,48z M300.8,60.1
		c2.4,0.3,4.7-0.5,6.8-1.4c2-0.8,4.3-1.9,3.1-4.7c-1.2-2.6-3.1-1.6-5-0.7c-3.6,1.7-7.1,2-10-1.3c-0.7-0.8-1.4-2.1-1.3-3.1
		c0.2-1.6,1.9-0.9,2.9-0.9c2.7-0.1,5.3,0,8,0c6.5,0,8.3-2.8,5.9-8.8c-1.2-2.9-3.2-5-6.1-6.2c-4.7-2-8.8-0.9-12.4,2.4
		c-4.4,4-6,11.5-3.6,17C291.3,57.5,295.5,59.8,300.8,60.1z M318.2,45.6c0,3,0,6,0,9c0,2.3,0.2,4.6,3.2,4.5c2.8-0.1,2.8-2.2,2.9-4.4
		c0.1-4.2-0.4-8.3,0.6-12.4c0.8-3.4,3.1-5.2,6.5-5c3.4,0.2,4.8,2.7,4.8,5.9c0.1,4,0,8,0,12c0,2.1,0.6,3.8,3,3.8
		c2.3,0,3.2-1.5,3.2-3.6c0-3.8,0-7.7,0-11.5c-0.1-10.8-6.9-14.7-16.1-9.2c-1,0.6-1.6,1.6-2.2-0.4c-0.5-1.6-1.9-2.3-3.6-1.7
		c-1.6,0.6-2.1,2-2.1,3.6C318.3,39.2,318.3,42.4,318.2,45.6z M381.1,32.1c-1.8,0-3.5,0.1-5.1,0.6c-4.2,1.5-7.2,4.1-6.5,8.8
		c0.6,4.4,3.2,7.2,8.2,6.7c1.1-0.1,2.3,0.3,3.4,0.6c1.7,0.5,3.2,1.3,2.9,3.4c-0.3,1.9-1.8,2.6-3.6,2.9c-2.6,0.4-4.9-0.6-7.3-1.4
		c-1.8-0.7-3-0.2-3.7,1.4c-0.8,1.8,0.4,2.9,1.8,3.5c4.6,1.9,9.4,2.4,14,0.2c3.2-1.5,4.6-4.3,4.4-7.8c-0.2-3.3-2-5.7-5.1-6.7
		c-2-0.7-4.2-0.8-6.3-1.3c-1.4-0.3-3.2-0.7-3.2-2.6c0-2,1.4-3,3.2-3.2c1.5-0.2,3-0.1,4.5,0.1c2.1,0.4,5.1,2.4,5.8-1
		c0.8-3.5-3-3.1-5.1-4C382.7,32,381.8,32.1,381.1,32.1z M224.6,46.1c0.1,2.1,0.1,4.3,0.4,6.4c0.8,4.8,5.2,7.7,10,6.4
		c1.7-0.4,3.2-1.1,3.1-3.3c-0.1-2.2-1.5-2.8-3.4-2.5c-3.3,0.6-4.1-1.4-4.1-4.1c0-1.8,0.1-3.7-0.1-5.5c-0.3-3.2,0.3-5.2,4.2-4.6
		c2,0.3,3.2-0.8,3.1-2.9c-0.1-2-1.7-2.3-3.3-2.1c-2.9,0.3-4.4-0.4-4.1-3.7c0.2-1.7,0.4-4.1-2.3-4.2c-2.6-0.1-3.3,1.9-3.2,4.1
		c0.1,2.6-0.5,4.1-3.6,3.9c-1.3-0.1-2,1.1-2.1,2.3c-0.1,1.1,0.5,2.3,1.5,2.3C226.9,38.7,224.3,43.2,224.6,46.1z M351.6,46.1
		c0.1,2.1,0.1,4.3,0.4,6.4c0.8,4.8,5.2,7.7,10,6.4c1.7-0.4,3.2-1.1,3.1-3.3c-0.1-2.2-1.5-2.8-3.4-2.4c-3.3,0.6-4-1.5-4.1-4.1
		c-0.1-1.8,0.1-3.7-0.1-5.5c-0.3-3.2,0.3-5.1,4.2-4.6c2,0.3,3.2-0.8,3.1-2.9c-0.1-2-1.7-2.3-3.3-2.1c-2.9,0.3-4.4-0.4-4.1-3.7
		c0.2-1.7,0.4-4.1-2.3-4.2c-2.6-0.1-3.3,1.9-3.2,4.1c0.1,2.5-0.5,4.1-3.5,3.9c-1.4-0.1-2,1.1-2.1,2.3c-0.1,1.1,0.5,2.3,1.4,2.3
		C353.9,38.7,351.3,43.3,351.6,46.1z M207.6,37.4c-0.3-2.4-0.6-4.4-3.1-4.2c-1.5,0.1-2.4,1.1-2.4,2.7c0,6.8-0.1,13.7,0,20.5
		c0,1.7,1.1,2.8,2.9,2.7c1.8,0,2.9-1,3-2.7c0.1-2.5,0.1-5,0.1-7.5c0.1-7,0.8-8,7.5-10.1c1.9-0.6,2.9-1.6,2.5-3.6
		c-0.4-2.2-2.2-2.2-3.9-2C211.6,33.4,210,35.1,207.6,37.4z M224.8,86.3c0,1.3-0.2,2.7,0,4c0.3,1.9-1.6,5,2.7,4.8
		c3.4-0.1,6-0.7,6.3-4.7c0.2-2.8,0.2-5.6-0.1-8.4c-0.4-3.7-3.2-3.9-6.2-4.1c-3.9-0.2-2.5,2.5-2.7,4.4
		C224.7,83.7,224.8,85,224.8,86.3z M341.6,86.5c0.8,3,1.4,5,2,7c0.3,1.1,1,1.7,2.2,1.4c0.9-0.2,1-0.8,0.7-1.5c-1.5-3.6-1-7.1,0-10.9
		c0.8-3-1.6-4.6-4.5-4.5c-1.6,0.1-4.4-1.4-4.5,2.1c-0.1,4.3,0,8.7,0,13c0,1.2,0.5,1.9,1.8,1.8c1.2-0.1,1.1-1,1.2-1.8
		C340.6,91.3,339.7,89.3,341.6,86.5z M290.3,86.7c0,0-0.1,0-0.1,0c0-1.3,0.1-2.7,0-4c-0.2-2.9-1.7-4.6-4.8-4.6
		c-3.1,0-4.6,1.8-4.7,4.7c-0.1,3-0.1,6,0.2,9c0.2,2.3,1.9,3.3,4.2,3.4c2.5,0.1,4.3-1,4.8-3.5C290.3,90,290.2,88.3,290.3,86.7z
		 M186.9,87.5c0.5-0.1,0.9-0.2,1.4-0.2c0.6,2.2,1.2,4.3,1.8,6.5c0.3,1,0.9,1.3,1.8,1.3c1.2-0.1,1.3-0.8,1-1.7
		c-1.1-3.4-1.8-6.6-0.1-10.4c1.2-2.6-1.1-4.9-4.1-4.8c-1.6,0-4.5-1.7-4.7,1.7c-0.3,4.5-0.1,9-0.1,13.5c0,0.9,0.3,1.7,1.4,1.6
		c1,0,1.5-0.6,1.5-1.6C186.9,91.5,186.9,89.5,186.9,87.5z M350,86.4c0,0,0.1,0,0.1,0c0,1.2,0,2.3,0,3.5c0.1,3,1.2,5.1,4.6,5.2
		c3.3,0.1,4.8-1.9,5-4.9c0.1-2.9,0-5.9-0.4-8.8c-0.3-2.5-2.3-3.4-4.8-3.3c-2.3,0.1-3.8,1.2-4.2,3.4C350.1,83.1,350.1,84.7,350,86.4z
		 M251.7,87.1c-0.6-3.3-1-5.4-1.4-7.5c-0.2-0.9-0.5-1.6-1.5-1.5c-1.2,0.2-1,1-0.9,1.9c0.8,4.4,1.6,8.8,2.5,13.2
		c0.2,1,0.6,1.9,1.9,1.9c1.3,0,1.6-0.8,1.8-1.9c0.8-4.4,1.7-8.8,2.6-13.1c0.2-0.8,0.3-1.7-0.9-1.8c-1-0.1-1.4,0.5-1.7,1.4
		C253.7,81.8,253.8,84.1,251.7,87.1z M314.1,80.7c-0.4-1-1.1-2-2.5-2.4c-1.7-0.5-3.3-0.2-4.5,1.2c-1.3,1.4-1.3,3-0.7,4.7
		c0.8,2.1,2.8,3.2,4.3,4.8c0.9,1,2,2.3,0.9,3.5c-1.4,1.5-2.2,0.2-2.8-1.2c-0.3-0.9-1.2-1.3-2-0.8c-1.1,0.7-0.5,1.8,0,2.6
		c1.3,2.2,3.4,2.7,5.6,1.8c2.3-1,2.9-3,2.2-5.4c-0.7-2.4-2.8-3.6-4.4-5.3c-1-1-1.9-2.3-0.7-3.4c1.3-1.2,2,0.1,2.5,1.2
		c0.3,0.7,0.7,1.2,1.5,0.8C314.1,82.4,314.2,81.7,314.1,80.7z M381.9,86.4c0.1,1.8,0,3.7,0.4,5.5c0.4,1.9,1.8,3.1,3.9,3.2
		c2,0.1,3.7-0.4,4.5-2.4c0.5-1.2,1.2-2.8-0.2-3.6c-1.7-0.9-2.2,0.5-2.3,2.1c-0.1,0.9-0.6,1.6-1.6,1.5c-0.9-0.1-1.4-0.9-1.4-1.8
		c-0.1-3-0.1-6,0-9c0-0.9,0.4-1.6,1.4-1.7c1-0.1,1.6,0.5,1.6,1.5c0.1,1.5,0.6,3.1,2.2,2.2c1.6-0.9,0.8-2.7,0-4c-1-1.6-2.6-2-4.4-1.8
		c-2.1,0.2-3.5,1.3-3.8,3.3C381.9,83,382,84.7,381.9,86.4z M214.8,78.6c-6.9-1.2-6.9-1.2-6.9,5.2c0,2.3-0.1,4.6,0,7
		c0.1,1.4-0.8,3.5,0.8,4c1.9,0.6,4.3,1.1,6.2-0.7c-1.1-1.6-3.9,0-4.1-3.1c-0.2-2.7,0.9-4.1,3.9-4.8c-2.1-1.3-3.9-1.3-3.9-3.9
		C210.6,79,214,81,214.8,78.6z M244.9,78.7c-7-1.3-7-1.3-7,5.1c0,2.3-0.1,4.6,0,7c0.1,1.4-0.8,3.5,0.7,4c1.9,0.7,4.3,1.1,6.2-0.7
		c-1.1-1.7-3.9,0-4.1-3.1c-0.1-2.7,0.7-4.2,3.8-4.7c-1.9-1.4-3.9-1.3-3.9-3.9C240.6,79.1,243.9,80.9,244.9,78.7z M267.4,78.8
		c-6.8-1.8-7-1.6-7,4.7c0,2.3,0,4.7,0,7c0,5.2,1.8,6.1,6.8,3.2c-1-1.5-4.1,0.2-4-3.2c0-2.6,1.4-3.5,3.9-4.4
		c-1.9-1.5-4.2-1.4-3.8-4.3C263.6,79,266.5,81,267.4,78.8z M294.3,86.7c0,2,0,4,0,6c0,1-0.1,2.1,1.3,2.3c1.9,0.2,1.7-1.3,1.6-2.4
		c-0.1-2.6-0.1-4.5,3.5-5.1c3-0.5,2.9-3.7,2.4-6.3c-0.7-3.6-3.7-3.2-6.3-3.2c-3.9,0-2.2,2.9-2.5,4.7
		C294.1,84.1,294.2,85.4,294.3,86.7z M325,86.4c0,2,0,4,0,6c0,1.1-0.4,2.6,1.4,2.6c1.7,0,1.6-1.5,1.5-2.6c-0.3-2.9,0.5-4.2,3.7-5
		c2.9-0.7,2.9-3.8,2.2-6.4c-0.9-3.5-3.9-3.1-6.5-3c-3.6,0-1.9,2.8-2.2,4.4C324.8,83.8,325,85.1,325,86.4z M278,94.1
		c-4.6-0.3-4.3-3.3-4.2-6.2c0.1-2.6,0-5.3,0-7.9c0-0.9-0.2-1.6-1.3-1.7c-1.4-0.1-1.6,0.7-1.6,1.8c0,3.1,0,6.3,0,9.4
		C270.9,95.7,270.9,95.7,278,94.1z M379,78.8c-7-1.5-7-1.5-7,4.9c0,2.3-0.1,4.7,0.1,7c0.1,1.5-1.1,3.8,1.2,4.2
		c1.8,0.4,4.1,1.1,5.7-0.9c-1.1-1.7-3.9,0.1-4.1-3c-0.1-2.6,0.6-4.2,5-4.8c-3.2-1.1-4.9-1.3-5-3.8C374.7,79.1,378,80.9,379,78.8z
		 M361.9,94.7c4,0.9,5.5-0.4,5.6-3.6c0.1-3.1,0.1-6.3,0-9.4c-0.1-1.3,1-3.5-1.4-3.5c-2.4,0-1.2,2.2-1.4,3.5
		C364.1,85.9,366.2,90.6,361.9,94.7z M203.4,86.3c-0.9-2.2-4-0.2-4.3-3.5c-0.3-3.6,3.4-1.9,4.1-3.8c-5.5-1.8-5.9-1.6-5.9,3.5
		c0,2.7,0,5.3,0,8c0,5.3,1.6,6.2,6.8,3.4c-1.1-1.4-4,0-4-3.3C200,87.8,201.7,87.2,203.4,86.3z M180.9,86.6c-1.9-1.8-3.8-1.3-4.1-3.8
		c-0.4-3.5,3.3-2,4-3.8c-6.6-1.9-6.8-1.7-6.8,4.2c0,2.7-0.2,5.3,0.1,8c0.1,1.3-1.3,3.9,1.5,3.8c2.2-0.1,1.4-2.3,1.3-3.6
		C176.8,88.9,176.9,86.7,180.9,86.6z M393.9,78.9c2.8,1.2,2.9,3.3,2.8,5.7c-0.1,2.6-0.1,5.3,0,8c0,1.1-0.3,2.6,1.5,2.4
		c1.4-0.1,1.2-1.4,1.2-2.3c0-2.5,0.1-5,0-7.5c-0.1-2.6-0.2-5,3.8-6.5C399.4,77.9,396.9,77.9,393.9,78.9z"/>
	<path style="fill:#2184B6;" d="M32.4,47.8C39.9,55,47,61.7,54,68.6c4.9,4.8,5.3,10.8,1.1,15.5c-3.6,4.1-10.7,5.1-15,1
		C29.3,74.8,18.7,64.2,8.4,53.3c-3.7-3.9-2.9-9.5,1.4-13.9C20,28.9,30.3,18.5,40.8,8.2c5.8-5.7,11.4-5.1,17.4,1.1
		c3.4,3.5,2.5,10.5-2.1,15.1C48.5,32.1,40.7,39.6,32.4,47.8z"/>
	<path style="fill:#2184B6;" d="M523.5,87.8c-4.7-0.8-8.2-3.4-10.5-8.3c-2.3-4.8,0.8-7.8,3.2-10.4c6.4-7.1,13.3-14,20.3-20.5
		c3.1-3,2.8-4.6-0.2-7.3c-6.1-5.7-11.9-11.6-17.6-17.7c-6.7-7.1-4.2-15.9,5.1-18.8c4.1-1.3,7.4,0.4,10.2,3.1
		c9.8,9.7,19.5,19.4,29.1,29.4c4.8,5,5,9.9,0.2,14.9C553,63,542.4,73.5,531.9,84.1C529.7,86.3,526.8,87.2,523.5,87.8z"/>
	<path style="fill:#4F4F4F;" d="M70.9,40.4c0-4.8,0.1-9.6,0-14.5c0-3.1,1.3-4.8,4.4-4.9c3.8-0.1,7.7-0.4,11.4,0.3
		c10.4,1.8,16.2,8.7,15.9,18.5c-0.4,11.5-6.1,17.6-17.6,19.1C71.8,60.6,71,60,71,46.9c0-2.2,0-4.3,0-6.5
		C71,40.4,70.9,40.4,70.9,40.4z M77.1,39.8c0,3.5,0,7,0,10.5c0,1.6,0.1,2.8,2.2,3.2c8.1,1.6,15.8-3.2,16.9-10.7
		c1.4-9.5-3.4-15.2-13-16c-4.4-0.4-7,0.3-6.2,5.6C77.4,34.8,77.1,37.3,77.1,39.8z"/>
	<path style="fill:#4F4F4F;" d="M243.3,45.6c0-3.3-0.1-6.7,0-10c0.1-2.7,2.6-4.8,4.1-2.9c2.7,3.5,4.3,0.9,6.3,0.1
		c2.7-1.2,5.6-1.2,7.6,0.6c2.5,2.3,3.9,2.3,6.8,0.3c6.2-4.3,13.5-0.4,14.1,7.1c0.4,4.8,0,9.6,0.1,14.5c0,2.1-0.6,3.7-2.9,3.8
		c-2.7,0-3.2-1.8-3.2-4.1c0.1-4,0.2-8,0.1-12c0-2.9-1-5.6-4.3-5.7c-3.5-0.1-5.5,2.2-5.7,5.6c-0.2,3.8-0.1,7.7-0.1,11.5
		c0,2.3-0.4,4.6-3.3,4.6c-2.8-0.1-2.8-2.3-2.7-4.4c0-3.8,0.1-7.7,0-11.5c-0.1-3-1.2-5.8-4.8-5.9c-3.4,0-5.2,2.3-5.5,5.4
		c-0.4,4.1-0.3,8.3-0.3,12.5c0,2-0.4,3.8-2.8,3.9c-2.6,0.1-3.3-1.6-3.3-3.9C243.3,51.9,243.2,48.8,243.3,45.6
		C243.3,45.6,243.3,45.6,243.3,45.6z"/>
	<path style="fill:#4F4F4F;" d="M143.2,57.8c0,3.8,0,7.3,0,10.7c0,2.2-1,3.5-3.2,3.4c-2.1-0.1-2.8-1.4-2.8-3.4c0-11,0-22,0-32.9
		c0-1.5,0.5-2.6,1.9-3.2c1.7-0.7,3.1-0.1,3.7,1.5c0.7,1.7,1.3,1.1,2.4,0.5c6.3-3.4,11.6-2.8,15.3,1.6c4.1,4.7,4.2,14,0.3,19.2
		c-3.4,4.5-11.2,6.9-16,3C144.4,58,144.1,58,143.2,57.8z M157.4,46.1c0.1-4.8-2.9-8.8-6.8-8.9c-4-0.1-7.4,4-7.5,8.9
		c-0.1,5,2.8,8.7,6.8,8.8C154,55.1,157.2,51.2,157.4,46.1z"/>
	<path style="fill:#4F4F4F;" d="M484.2,57.5c0,4.1,0,7.6,0,11.1c0,2-0.8,3.2-2.8,3.4c-2.3,0.1-3.2-1.3-3.2-3.4c0-11,0-22,0-32.9
		c0-1.5,0.6-2.6,1.9-3.2c1.2-0.5,2.6-0.4,3.1,0.8c1.1,2.7,2.1,1.6,3.9,0.6c7.1-4.1,15.2-0.4,17,7.6c2.1,8.7-1.9,16.2-9.5,18.3
		C490.9,60.7,487.8,59.5,484.2,57.5z M484.1,46.3c0,5,3,8.7,7,8.7c4.1,0,7.2-3.9,7.3-9.1c0.1-4.8-3.1-8.8-7-8.7
		C487.4,37.2,484.1,41.3,484.1,46.3z"/>
	<path style="fill:#4F4F4F;" d="M423.5,49.3c-5.5-1.6-8.7,0.4-9.9,6.1c-0.4,2.1-1.6,4.4-4.5,3.3c-3-1.2-2.3-3.6-1.3-5.8
		c3.9-9.3,7.9-18.7,11.8-28c0.9-2.1,1.9-3.9,4.6-3.8c2.5,0.1,3.2,2,4,3.9c3.8,9.4,7.7,18.7,11.5,28.1c0.9,2.2,2,4.6-1.2,5.8
		c-2.8,1-4.1-1-4.6-3.2C432.8,49.5,429.1,47.9,423.5,49.3z M417.9,44.1c3.3,0,6.1,0,8.9,0c1,0,2.8,0.4,2.1-1.6
		c-1.5-4.4-3.1-8.6-5.1-13.9C421.6,34.4,419.8,39,417.9,44.1z"/>
	<path style="fill:#4F4F4F;" d="M451.8,58.2c0,3.3,0,6.5,0,9.8c0,2.3-0.8,4-3.3,3.9c-2.4-0.1-2.8-1.9-2.8-3.9c0-10.6,0-21.3,0-31.9
		c0-1.6,0.2-3.2,1.8-3.7c1.8-0.6,3.4-0.1,3.7,2.1c0.3,1.5,1,0.8,1.6,0.5c8.2-3.6,12.7-3.2,16.3,1.5c3.8,4.9,3.8,13.5-0.1,18.7
		c-3.6,4.8-9.2,5.9-16.5,3.1C452.5,58.2,452.3,58.2,451.8,58.2z M466,45.9c0.1-4.7-3.2-8.7-7.1-8.7c-4,0-7.4,4.3-7.4,9.1
		c0,5,3.1,8.7,7.1,8.7C462.6,54.9,465.9,50.9,466,45.9z"/>
	<path style="fill:#4F4F4F;" d="M188.6,56.4c-5.8,4.4-10.2,4.8-14.9,1.7c-4.3-2.8-6.3-8.5-5.2-14.1c1.3-6.1,5.2-10,10.9-10.8
		c2.2-0.3,4.3,0.1,6.2,1.2c1.6,0.9,2.6,2.3,4.6-0.3c1.6-2.1,3.9-0.6,4,1.9c0.3,7.1,0.2,14.3,0.2,21.4c0,1.6-1.1,2.5-2.6,2.5
		C189.7,60,189.4,58.1,188.6,56.4z M188.7,46.5c0-4.4-3.2-8.2-7-8.3c-3.9-0.1-7.3,3.8-7.3,8.6c0,4.2,3,7.8,6.7,7.9
		C185.1,54.9,188.6,51.1,188.7,46.5z"/>
	<path style="fill:#4F4F4F;" d="M121.9,48c-1.9,0-3.3-0.1-4.6,0c-1.3,0.2-3.4-0.9-3.9,1c-0.4,1.6,0.9,3.1,2.3,4.1
		c3.1,2.2,6.3,1.7,9.4,0c1.9-1,3.5-1.3,4.6,0.9c1,2.2-0.4,3.4-2.2,4.3c-5.1,2.5-10.3,2.9-15.1-0.5c-4.7-3.3-6.1-8.2-5.1-13.7
		c1-5.6,3.9-9.9,9.6-11.6c1.1-0.3,2.3-0.5,3.4-0.4c6,0.3,11.2,5.7,10.7,11.5C130.4,50.5,124.8,47,121.9,48z M118.9,44.3
		c1.9-1.6,5.9,2.1,6.1-2.5c0.1-2.9-2.3-4.8-5.4-4.7c-3.5,0.1-6,2.6-5.9,5.5C113.7,45.8,117.1,43.2,118.9,44.3z"/>
	<path style="fill:#4F4F4F;" d="M300.8,60.1c-5.4-0.3-9.5-2.6-11.7-7.7c-2.4-5.5-0.8-13,3.6-17c3.6-3.3,7.7-4.4,12.4-2.4
		c2.9,1.2,4.9,3.3,6.1,6.2c2.4,6,0.6,8.7-5.9,8.8c-2.7,0-5.3-0.1-8,0c-1,0-2.7-0.7-2.9,0.9c-0.1,1,0.6,2.3,1.3,3.1
		c2.9,3.3,6.4,3,10,1.3c1.9-0.9,3.8-2,5,0.7c1.3,2.8-1.1,3.9-3.1,4.7C305.5,59.6,303.3,60.4,300.8,60.1z M300.7,44.5
		c1.2-2.1,5.3,1.8,5.3-2.7c0-2.9-2.3-4.8-5.4-4.7c-3.5,0.1-6.1,2.6-5.9,5.5C294.9,45.6,298.4,43.2,300.7,44.5z"/>
	<path style="fill:#4F4F4F;" d="M318.3,45.6c0-3.2,0-6.3,0-9.5c0-1.6,0.5-3,2.1-3.6c1.7-0.6,3.1,0,3.6,1.7c0.6,2.1,1.2,1.1,2.2,0.4
		c9.3-5.5,16-1.6,16.1,9.2c0,3.8,0,7.7,0,11.5c0,2.1-0.9,3.6-3.2,3.6c-2.4,0-3-1.7-3-3.8c0-4,0.1-8,0-12c-0.1-3.2-1.4-5.7-4.8-5.9
		c-3.4-0.2-5.6,1.6-6.5,5c-1,4.1-0.4,8.3-0.6,12.4c-0.1,2.1-0.1,4.3-2.9,4.4c-3.1,0.1-3.3-2.2-3.2-4.5
		C318.3,51.6,318.2,48.6,318.3,45.6z"/>
	<path style="fill:#4F4F4F;" d="M381.1,32.1c0.6,0.1,1.5,0,2.3,0.3c2.1,0.9,6,0.5,5.1,4c-0.8,3.4-3.7,1.3-5.8,1
		c-1.5-0.3-3-0.3-4.5-0.1c-1.8,0.2-3.2,1.3-3.2,3.2c0,1.9,1.7,2.2,3.2,2.6c2.1,0.5,4.3,0.7,6.3,1.3c3.2,1,4.9,3.4,5.1,6.7
		c0.2,3.5-1.2,6.3-4.4,7.8c-4.7,2.2-9.4,1.7-14-0.2c-1.5-0.6-2.7-1.7-1.8-3.5c0.7-1.6,1.9-2.1,3.7-1.4c2.3,0.8,4.7,1.8,7.3,1.4
		c1.8-0.2,3.3-1,3.6-2.9c0.4-2.1-1.1-2.9-2.9-3.4c-1.1-0.3-2.3-0.7-3.4-0.6c-5,0.5-7.6-2.3-8.2-6.7c-0.6-4.6,2.3-7.3,6.5-8.8
		C377.7,32.1,379.3,32.1,381.1,32.1z"/>
	<path style="fill:#4F4F4F;" d="M224.6,46.1c-0.3-2.9,2.2-7.4-3.8-7.3c-0.9,0-1.6-1.3-1.5-2.3c0.1-1.2,0.8-2.4,2.1-2.3
		c3,0.3,3.7-1.3,3.6-3.9c-0.1-2.2,0.6-4.2,3.2-4.1c2.7,0.1,2.5,2.4,2.3,4.2c-0.4,3.3,1.2,4,4.1,3.7c1.6-0.2,3.2,0.1,3.3,2.1
		c0.1,2.1-1.2,3.2-3.1,2.9c-3.8-0.5-4.5,1.4-4.2,4.6c0.2,1.8,0,3.7,0.1,5.5c0.1,2.7,0.9,4.7,4.1,4.1c2-0.3,3.3,0.2,3.4,2.5
		c0.1,2.1-1.5,2.8-3.1,3.3c-4.7,1.2-9.2-1.6-10-6.4C224.7,50.4,224.8,48.3,224.6,46.1z"/>
	<path style="fill:#4F4F4F;" d="M351.6,46.1c-0.3-2.9,2.3-7.4-3.8-7.3c-1,0-1.5-1.3-1.4-2.3c0.1-1.2,0.7-2.4,2.1-2.3
		c3,0.3,3.6-1.3,3.5-3.9c-0.1-2.2,0.6-4.2,3.2-4.1c2.7,0.1,2.5,2.4,2.3,4.2c-0.4,3.3,1.2,4,4.1,3.7c1.6-0.2,3.2,0.1,3.3,2.1
		c0.1,2.1-1.2,3.2-3.1,2.9c-3.8-0.5-4.5,1.4-4.2,4.6c0.2,1.8,0,3.7,0.1,5.5c0.1,2.6,0.8,4.7,4.1,4.1c2-0.3,3.3,0.2,3.4,2.4
		c0.1,2.1-1.5,2.8-3.1,3.3c-4.7,1.2-9.2-1.6-10-6.4C351.7,50.4,351.8,48.3,351.6,46.1z"/>
	<path style="fill:#4F4F4F;" d="M207.6,37.4c2.4-2.3,4.1-4,6.5-4.3c1.7-0.2,3.5-0.2,3.9,2c0.4,2-0.6,3-2.5,3.6
		c-6.8,2.1-7.5,3.1-7.5,10.1c0,2.5,0,5-0.1,7.5c-0.1,1.8-1.2,2.7-3,2.7c-1.8,0-2.9-1-2.9-2.7c0-6.8,0-13.7,0-20.5
		c0-1.6,1-2.5,2.4-2.7C207,32.9,207.3,34.9,207.6,37.4z"/>
	<path style="fill:#4F4F4F;" d="M224.8,86.3c0-1.3-0.1-2.7,0-4c0.2-1.8-1.2-4.6,2.7-4.4c3,0.1,5.9,0.3,6.2,4.1
		c0.3,2.8,0.2,5.6,0.1,8.4c-0.2,3.9-2.9,4.6-6.3,4.7c-4.3,0.1-2.4-3-2.7-4.8C224.7,89,224.8,87.7,224.8,86.3z M231.1,86.5
		c-0.8-2,1.3-6-2.1-6c-2.6,0-0.6,3.9-1.3,5.9c0,0.2,0,0.3,0,0.5c0.6,2-1.4,5.7,1.6,5.6C232.2,92.5,230.5,88.7,231.1,86.5z"/>
	<path style="fill:#4F4F4F;" d="M341.6,86.5c-1.8,2.7-1,4.8-1.2,6.7c-0.1,0.8,0,1.7-1.2,1.8c-1.3,0.1-1.8-0.6-1.8-1.8
		c0-4.3-0.1-8.7,0-13c0.1-3.5,2.8-2,4.5-2.1c2.9-0.1,5.3,1.5,4.5,4.5c-1,3.8-1.5,7.3,0,10.9c0.3,0.7,0.2,1.3-0.7,1.5
		c-1.2,0.3-1.9-0.3-2.2-1.4C343,91.5,342.4,89.5,341.6,86.5z M343.9,82.2c-0.2-0.9-0.5-2.1-2.1-2.1c-1.9,0-1.4,1.5-1.5,2.5
		c0,1.2-0.1,2.5,1.7,2.3C343.5,84.8,343.8,83.7,343.9,82.2z"/>
	<path style="fill:#4F4F4F;" d="M290.3,86.7c-0.1,1.7,0,3.4-0.3,5c-0.5,2.5-2.3,3.5-4.8,3.5c-2.3-0.1-4-1.1-4.2-3.4
		c-0.3-3-0.3-6-0.2-9c0.1-2.9,1.5-4.7,4.7-4.7c3.1,0,4.6,1.7,4.8,4.6c0.1,1.3,0,2.7,0,4C290.2,86.7,290.2,86.7,290.3,86.7z
		 M287.3,86.6c-1-2.1,1.4-6.1-2-6.1c-2.9,0.1-1.4,4.1-1.4,6.3c0,2-1.5,5.9,1.4,5.8C288.8,92.6,286.3,88.6,287.3,86.6z"/>
	<path style="fill:#4F4F4F;" d="M186.9,87.5c0,2,0,4,0,5.9c0,1-0.5,1.6-1.5,1.6c-1.1,0-1.4-0.7-1.4-1.6c0-4.5-0.2-9,0.1-13.5
		c0.2-3.4,3.1-1.7,4.7-1.7c3-0.1,5.3,2.2,4.1,4.8c-1.7,3.7-1,6.9,0.1,10.4c0.3,0.9,0.1,1.7-1,1.7c-0.9,0-1.6-0.3-1.8-1.3
		c-0.6-2.2-1.2-4.3-1.8-6.5C187.9,87.4,187.4,87.5,186.9,87.5z M188.4,85c1.4-0.2,1.8-1.2,1.8-2.4c0-1.2-0.3-2.3-1.8-2.4
		c-1.8-0.1-1.5,1.3-1.5,2.4C187,83.6,186.7,85,188.4,85z"/>
	<path style="fill:#4F4F4F;" d="M350,86.4c0.1-1.6,0-3.3,0.4-4.9c0.4-2.2,1.9-3.3,4.2-3.4c2.4-0.1,4.4,0.8,4.8,3.3
		c0.4,2.9,0.5,5.9,0.4,8.8c-0.1,3-1.6,5-5,4.9c-3.4-0.1-4.5-2.2-4.6-5.2c0-1.2,0-2.3,0-3.5C350.1,86.4,350.1,86.4,350,86.4z
		 M353,86.5c1,2.1-1.4,6.1,1.9,6.1c3.3,0,1.7-3.9,1.7-6.1c0-2.1,1.6-6.1-1.6-6.1C351.6,80.5,354,84.5,353,86.5z"/>
	<path style="fill:#4F4F4F;" d="M251.7,87.1c2.1-3,2-5.4,2.5-7.5c0.2-0.9,0.6-1.5,1.7-1.4c1.2,0.1,1.1,1,0.9,1.8
		c-0.9,4.4-1.8,8.8-2.6,13.1c-0.2,1.1-0.6,1.9-1.8,1.9c-1.3,0-1.7-0.9-1.9-1.9c-0.9-4.4-1.7-8.8-2.5-13.2c-0.2-0.8-0.3-1.7,0.9-1.9
		c1.1-0.1,1.4,0.6,1.5,1.5C250.7,81.7,251.1,83.8,251.7,87.1z"/>
	<path style="fill:#4F4F4F;" d="M314.1,80.7c0.1,1.1,0,1.7-0.7,2c-0.8,0.3-1.2-0.2-1.5-0.8c-0.5-1.1-1.2-2.4-2.5-1.2
		c-1.2,1.1-0.3,2.4,0.7,3.4c1.6,1.6,3.7,2.8,4.4,5.3c0.7,2.4,0,4.4-2.2,5.4c-2.2,1-4.3,0.4-5.6-1.8c-0.5-0.8-1.1-1.9,0-2.6
		c0.8-0.5,1.6-0.1,2,0.8c0.6,1.4,1.4,2.7,2.8,1.2c1.1-1.1,0-2.5-0.9-3.5c-1.4-1.6-3.5-2.6-4.3-4.8c-0.6-1.6-0.6-3.3,0.7-4.7
		c1.2-1.4,2.8-1.7,4.5-1.2C313,78.6,313.7,79.7,314.1,80.7z"/>
	<path style="fill:#4F4F4F;" d="M381.9,86.4c0.1-1.7,0-3.4,0.3-5c0.4-2,1.8-3.1,3.8-3.3c1.8-0.2,3.4,0.2,4.4,1.8
		c0.8,1.3,1.6,3.1,0,4c-1.6,0.9-2.2-0.6-2.2-2.2c0-0.9-0.6-1.5-1.6-1.5c-1,0.1-1.4,0.9-1.4,1.7c0,3,0,6,0,9c0,0.9,0.5,1.6,1.4,1.8
		c1,0.1,1.5-0.6,1.6-1.5c0.1-1.5,0.6-2.9,2.3-2.1c1.5,0.7,0.7,2.4,0.2,3.6c-0.8,2-2.5,2.5-4.5,2.4c-2.1-0.1-3.5-1.3-3.9-3.2
		C381.9,90.1,382,88.2,381.9,86.4z"/>
	<path style="fill:#4F4F4F;" d="M214.8,78.6c-0.7,2.4-4.1,0.4-4.1,3.7c0,2.6,1.8,2.6,3.9,3.9c-3,0.7-4,2-3.9,4.8
		c0.2,3.1,2.9,1.4,4.1,3.1c-1.9,1.9-4.3,1.4-6.2,0.7c-1.6-0.5-0.7-2.6-0.8-4c-0.1-2.3,0-4.6,0-7C207.9,77.5,207.9,77.5,214.8,78.6z"
		/>
	<path style="fill:#4F4F4F;" d="M244.9,78.7c-0.9,2.3-4.2,0.4-4.2,3.7c0,2.6,2,2.5,3.9,3.9c-3.1,0.5-4,2-3.8,4.7
		c0.2,3,3,1.4,4.1,3.1c-1.9,1.8-4.3,1.4-6.2,0.7c-1.5-0.6-0.6-2.6-0.7-4c-0.1-2.3,0-4.6,0-7C237.9,77.4,237.9,77.4,244.9,78.7z"/>
	<path style="fill:#4F4F4F;" d="M267.4,78.8c-0.9,2.2-3.8,0.2-4.1,3.1c-0.3,2.9,2,2.8,3.8,4.3c-2.5,0.8-3.8,1.7-3.9,4.4
		c0,3.3,3.1,1.7,4,3.2c-5,2.8-6.8,2-6.8-3.2c0-2.3,0-4.7,0-7C260.4,77.2,260.6,77.1,267.4,78.8z"/>
	<path style="fill:#4F4F4F;" d="M294.3,86.7c0-1.3-0.2-2.7,0-4c0.3-1.8-1.4-4.7,2.5-4.7c2.7,0,5.6-0.4,6.3,3.2
		c0.5,2.5,0.6,5.8-2.4,6.3c-3.6,0.6-3.7,2.4-3.5,5.1c0.1,1.1,0.3,2.6-1.6,2.4c-1.4-0.1-1.3-1.3-1.3-2.3
		C294.2,90.7,294.3,88.7,294.3,86.7z M299.1,80.2c-2-0.2-2,1.1-1.9,2.2c0.2,1.2-1,3.2,1.3,3.5c1.5,0.2,1.9-1.1,2-2.2
		C300.7,82.3,300.8,80.7,299.1,80.2z"/>
	<path style="fill:#4F4F4F;" d="M325,86.4c0-1.3-0.2-2.7,0-4c0.3-1.6-1.4-4.4,2.2-4.4c2.7,0,5.6-0.4,6.5,3c0.7,2.5,0.7,5.7-2.2,6.4
		c-3.2,0.8-4,2.1-3.7,5c0.1,1.1,0.3,2.6-1.5,2.6c-1.8,0-1.4-1.5-1.4-2.6C325,90.4,325,88.4,325,86.4z M327.9,83.2
		c0.6,0.7-0.8,2.8,1.5,2.8c1.8,0,1.9-1.6,1.8-2.9c0-1.3-0.1-2.9-2-2.8C327.4,80.3,328.2,81.9,327.9,83.2z"/>
	<path style="fill:#4F4F4F;" d="M278,94.1c-7.1,1.7-7.1,1.7-7.1-4.6c0-3.1,0-6.3,0-9.4c0-1.1,0.3-2,1.6-1.8c1.1,0.1,1.3,0.9,1.3,1.7
		c0,2.6,0.1,5.3,0,7.9C273.7,90.8,273.3,93.8,278,94.1z"/>
	<path style="fill:#4F4F4F;" d="M379,78.8c-1,2.1-4.3,0.3-4.2,3.7c0.1,2.5,1.8,2.6,5,3.8c-4.4,0.6-5.1,2.2-5,4.8
		c0.1,3.1,3,1.3,4.1,3c-1.6,2-3.9,1.2-5.7,0.9c-2.3-0.5-1-2.8-1.2-4.2c-0.2-2.3-0.1-4.6-0.1-7C372,77.3,372,77.3,379,78.8z"/>
	<path style="fill:#4F4F4F;" d="M361.9,94.7c4.3-4.1,2.2-8.7,2.8-13c0.2-1.3-0.9-3.5,1.4-3.5c2.4,0,1.4,2.2,1.4,3.5
		c0.1,3.1,0.1,6.3,0,9.4C367.4,94.2,365.8,95.6,361.9,94.7z"/>
	<path style="fill:#4F4F4F;" d="M203.4,86.3c-1.6,0.9-3.3,1.5-3.3,4.2c0,3.3,2.9,2,4,3.3c-5.1,2.8-6.7,2-6.8-3.4c0-2.7,0-5.3,0-8
		c0-5,0.4-5.2,5.9-3.5c-0.7,1.9-4.4,0.2-4.1,3.8C199.3,86.1,202.5,84.1,203.4,86.3z"/>
	<path style="fill:#4F4F4F;" d="M180.9,86.6c-4,0.2-4.1,2.3-4,4.7c0,1.3,0.9,3.5-1.3,3.6c-2.8,0.1-1.4-2.4-1.5-3.8
		c-0.2-2.6-0.1-5.3-0.1-8c0-5.9,0.2-6.1,6.8-4.2c-0.8,1.9-4.4,0.3-4,3.8C177.1,85.3,179,84.8,180.9,86.6z"/>
	<path style="fill:#4F4F4F;" d="M393.9,78.9c2.9-0.9,5.5-1,9.3-0.2c-4,1.5-3.9,3.9-3.8,6.5c0.1,2.5,0,5,0,7.5c0,0.9,0.2,2.2-1.2,2.3
		c-1.8,0.1-1.5-1.4-1.5-2.4c-0.1-2.7-0.1-5.3,0-8C396.9,82.2,396.8,80.1,393.9,78.9z"/>
	<path style="fill:#FCFCFC;" d="M77.1,39.8c0-2.5,0.3-5-0.1-7.5c-0.8-5.3,1.8-6,6.2-5.6c9.6,0.8,14.4,6.5,13,16
		c-1.1,7.5-8.8,12.3-16.9,10.7c-2.1-0.4-2.2-1.6-2.2-3.2C77.1,46.7,77.1,43.3,77.1,39.8z"/>
	<path style="fill:#FCFCFC;" d="M157.4,46.1c-0.1,5.1-3.4,9-7.5,8.9c-4-0.1-6.9-3.8-6.8-8.8c0.1-4.9,3.5-9,7.5-8.9
		C154.5,37.3,157.5,41.3,157.4,46.1z"/>
	<path style="fill:#FCFCFC;" d="M484.1,46.3c0-5,3.3-9.1,7.3-9.1c3.9,0,7,3.9,7,8.7c-0.1,5.1-3.2,9-7.3,9.1
		C487.1,55,484.1,51.3,484.1,46.3z"/>
	<path style="fill:#FCFCFC;" d="M417.9,44.1c1.9-5.1,3.7-9.7,5.9-15.5c2,5.3,3.6,9.6,5.1,13.9c0.7,2-1.1,1.6-2.1,1.6
		C424,44.1,421.2,44.1,417.9,44.1z"/>
	<path style="fill:#FCFCFC;" d="M466,45.9c-0.1,5-3.4,9-7.4,9.1c-4,0.1-7-3.7-7.1-8.7c0-4.8,3.4-9.1,7.4-9.1
		C462.8,37.1,466.1,41.2,466,45.9z"/>
	<path style="fill:#FCFCFC;" d="M188.7,46.5c0,4.6-3.5,8.4-7.6,8.2c-3.8-0.2-6.7-3.7-6.7-7.9c0-4.7,3.4-8.7,7.3-8.6
		C185.5,38.3,188.7,42.1,188.7,46.5z"/>
	<path style="fill:#FCFCFC;" d="M118.9,44.3c-1.8-1.1-5.2,1.5-5.2-1.7c-0.1-3,2.4-5.4,5.9-5.5c3.1-0.1,5.5,1.8,5.4,4.7
		C124.8,46.5,120.7,42.8,118.9,44.3z"/>
	<path style="fill:#FCFCFC;" d="M300.7,44.5c-2.2-1.3-5.8,1.1-6-1.9c-0.2-2.9,2.4-5.4,5.9-5.5c3.1-0.1,5.4,1.8,5.4,4.7
		C306,46.3,301.9,42.4,300.7,44.5z"/>
	<path style="fill:#FCFCFC;" d="M231.1,86.5c-0.6,2.2,1.1,6-1.7,6.1c-2.9,0.1-1-3.7-1.6-5.6c0-0.2,0-0.3,0-0.5
		c0.6-2-1.4-5.9,1.3-5.9C232.4,80.5,230.3,84.5,231.1,86.5z"/>
	<path style="fill:#FCFCFC;" d="M343.9,82.2c-0.1,1.4-0.4,2.6-1.8,2.7c-1.8,0.2-1.7-1.1-1.7-2.3c0-1.1-0.4-2.5,1.5-2.5
		C343.3,80.1,343.6,81.3,343.9,82.2z"/>
	<path style="fill:#FCFCFC;" d="M287.3,86.6c-1,2.1,1.5,6-2,6.1c-2.9,0-1.4-3.8-1.4-5.8c0-2.2-1.5-6.2,1.4-6.3
		C288.7,80.5,286.3,84.5,287.3,86.6z"/>
	<path style="fill:#FCFCFC;" d="M188.4,85c-1.8,0-1.5-1.4-1.5-2.4c0-1.1-0.3-2.5,1.5-2.4c1.5,0.1,1.8,1.2,1.8,2.4
		C190.2,83.8,189.9,84.8,188.4,85z"/>
	<path style="fill:#FCFCFC;" d="M353,86.5c1-2-1.4-6.1,1.9-6.1c3.2,0,1.6,4,1.6,6.1c0,2.1,1.6,6.1-1.7,6.1
		C351.6,92.6,354,88.6,353,86.5z"/>
	<path style="fill:#FCFCFC;" d="M299.1,80.2c1.7,0.5,1.6,2.1,1.4,3.5c-0.1,1.1-0.5,2.5-2,2.2c-2.3-0.4-1.1-2.3-1.3-3.5
		C297.1,81.3,297.1,80,299.1,80.2z"/>
	<path style="fill:#FCFCFC;" d="M327.9,83.2c0.3-1.3-0.5-2.9,1.4-2.9c1.9-0.1,1.9,1.4,2,2.8c0,1.3-0.1,2.9-1.8,2.9
		C327.1,85.9,328.5,83.9,327.9,83.2z"/>
</g>
</svg>
